<svg width="200" height="200" viewBox="0 0 200 200" fill="none" xmlns="http://www.w3.org/2000/svg">
<g id="Frame 1">
<rect width="200" height="200" fill="white"/>
<rect id="rect" x="2.5" y="2.5" width="195" height="195" stroke="#19600E" stroke-width="5"/>
<circle id="Ellipse 1" cx="99.5" cy="99.5" r="86" fill="#12741C" stroke="#12741C" stroke-width="3"/>
<path id="Dirty" d="M54.6172 58.9727C59.2578 58.9727 63.4531 59.7227 67.2031 61.2227C70.9766 62.6992 74.1992 64.7617 76.8711 67.4102C79.543 70.0586 81.6055 73.2109 83.0586 76.8672C84.5117 80.5234 85.2383 84.5195 85.2383 88.8555C85.2383 91.6445 84.9688 94.3398 84.4297 96.9414C83.8906 99.543 83.1172 101.992 82.1094 104.289C81.1016 106.586 79.8594 108.684 78.3828 110.582C76.9297 112.48 75.2773 114.121 73.4258 115.504C71.5977 116.863 69.582 117.918 67.3789 118.668C65.1992 119.418 62.8672 119.793 60.3828 119.793C57.8516 119.793 55.2969 119.559 52.7188 119.09C50.1406 118.621 47.5859 118.117 45.0547 117.578C44.1875 118.07 43.2969 118.492 42.3828 118.844C41.4688 119.219 40.5547 119.523 39.6406 119.758C38.7266 120.016 37.8242 120.203 36.9336 120.32C36.0664 120.461 35.2461 120.531 34.4727 120.531C32.1289 120.531 30.3477 120.262 29.1289 119.723C27.8867 119.184 27.2656 118.375 27.2656 117.297C27.2656 116.664 27.4414 116.102 27.793 115.609C28.1211 115.117 28.6836 114.707 29.4805 114.379C30.2773 114.027 31.3203 113.77 32.6094 113.605C33.875 113.418 35.457 113.324 37.3555 113.324C38.832 113.324 40.2852 113.406 41.7148 113.57C43.1445 113.711 44.5625 113.887 45.9688 114.098L46.918 113.113C47.4102 112.527 47.7852 111.789 48.043 110.898C48.3008 109.984 48.4883 108.812 48.6055 107.383C48.7227 105.953 48.793 104.207 48.8164 102.145C48.8398 100.059 48.8516 97.5391 48.8516 94.5859C48.8516 91.7266 48.8633 89.2891 48.8867 87.2734C48.9336 85.2344 49.0273 83.4883 49.168 82.0352C49.3086 80.582 49.5195 79.3516 49.8008 78.3438C50.082 77.3125 50.457 76.375 50.9258 75.5312C51.418 74.6641 52.0273 73.8203 52.7539 73C53.4805 72.1562 54.3477 71.1953 55.3555 70.1172L57.1484 71.6992C56.6328 72.1914 56.2227 72.8008 55.918 73.5273C55.6367 74.2305 55.4258 75.0742 55.2852 76.0586C55.1445 77.0195 55.0508 78.1211 55.0039 79.3633C54.9805 80.582 54.9688 81.9648 54.9688 83.5117V103.305C54.9688 104.828 54.8047 106.164 54.4766 107.312C54.1484 108.438 53.7031 109.445 53.1406 110.336C52.6016 111.227 51.9805 112.023 51.2773 112.727C50.5742 113.43 49.8477 114.086 49.0977 114.695C50.4805 114.977 51.8281 115.258 53.1406 115.539C54.4531 115.82 55.7188 116.078 56.9375 116.312C58.1797 116.547 59.3633 116.746 60.4883 116.91C61.6367 117.051 62.7266 117.121 63.7578 117.121C65.6797 117.121 67.3906 116.699 68.8906 115.855C70.3906 115.012 71.6914 113.863 72.793 112.41C73.8945 110.934 74.8203 109.211 75.5703 107.242C76.3438 105.25 76.9648 103.117 77.4336 100.844C77.9023 98.5703 78.2305 96.1914 78.418 93.707C78.6289 91.2227 78.7344 88.7617 78.7344 86.3242C78.7344 82.457 78.2422 78.9883 77.2578 75.918C76.2734 72.8477 74.8086 70.2461 72.8633 68.1133C70.9414 65.957 68.5391 64.3164 65.6562 63.1914C62.7969 62.043 59.4805 61.4688 55.707 61.4688C52.9883 61.4688 50.6211 61.6914 48.6055 62.1367C46.5898 62.5586 44.8555 63.1328 43.4023 63.8594C41.9727 64.5625 40.8008 65.3711 39.8867 66.2852C38.9727 67.1992 38.2461 68.1484 37.707 69.1328C37.1914 70.0938 36.8281 71.0547 36.6172 72.0156C36.4297 72.9766 36.3359 73.8555 36.3359 74.6523C36.3359 75.5898 36.4062 76.5156 36.5469 77.4297C36.7109 78.3203 37.0156 79.1172 37.4609 79.8203C37.9297 80.5234 38.5859 81.0859 39.4297 81.5078C40.2734 81.9297 41.3984 82.1406 42.8047 82.1406C43.2734 82.1406 43.6602 82.1172 43.9648 82.0703C44.2695 82 44.5273 81.918 44.7383 81.8242C44.9727 81.7305 45.1719 81.625 45.3359 81.5078L45.7578 83.582C45.4062 83.8398 44.8086 84.0625 43.9648 84.25C43.1445 84.4375 42.2539 84.5312 41.293 84.5312C39.8867 84.5312 38.5742 84.2852 37.3555 83.793C36.1602 83.3008 35.1172 82.6328 34.2266 81.7891C33.3359 80.9219 32.6445 79.9258 32.1523 78.8008C31.6367 77.6758 31.3789 76.4805 31.3789 75.2148C31.3789 73.0352 31.9531 70.9727 33.1016 69.0273C34.25 67.0586 35.8555 65.3359 37.918 63.8594C39.9805 62.3594 42.4297 61.1758 45.2656 60.3086C48.125 59.418 51.2422 58.9727 54.6172 58.9727ZM33.0312 115.855C32.6562 115.855 32.2578 115.867 31.8359 115.891C31.4141 115.914 31.0273 115.973 30.6758 116.066C30.3008 116.16 29.9961 116.301 29.7617 116.488C29.5273 116.676 29.4102 116.945 29.4102 117.297C29.4102 117.766 29.7969 118.117 30.5703 118.352C31.3438 118.586 32.6445 118.703 34.4727 118.703C35.8789 118.703 37.2148 118.551 38.4805 118.246C39.7695 117.941 40.9766 117.496 42.1016 116.91C40.5547 116.629 39.0195 116.383 37.4961 116.172C35.9727 115.961 34.4844 115.855 33.0312 115.855ZM91.4258 102.531L91.0742 103.234L90.7227 103.973L89.2812 102.883L89.6328 102.145C90.2188 100.949 90.6992 99.7539 91.0742 98.5586C91.4727 97.3398 91.7891 96.2031 92.0234 95.1484C92.2812 94.0938 92.4922 93.168 92.6562 92.3711C92.8203 91.5742 92.9844 91 93.1484 90.6484C93.2891 90.3672 93.4883 90.1445 93.7461 89.9805C94.0273 89.793 94.3086 89.6406 94.5898 89.5234C94.8945 89.4062 95.1758 89.3242 95.4336 89.2773C95.7148 89.2305 95.9141 89.207 96.0312 89.207C96.5469 89.207 96.8867 89.3125 97.0508 89.5234C97.2383 89.7344 97.332 90.1094 97.332 90.6484C97.332 90.9062 97.2734 91.5508 97.1562 92.582C97.0625 93.5898 96.9453 94.8672 96.8047 96.4141C96.6875 97.9375 96.5703 99.6602 96.4531 101.582C96.3594 103.48 96.3125 105.449 96.3125 107.488C96.3125 108.965 96.3828 110.137 96.5234 111.004C96.6641 111.848 96.8398 112.48 97.0508 112.902C97.2852 113.324 97.5312 113.594 97.7891 113.711C98.0703 113.828 98.3516 113.887 98.6328 113.887C99.0078 113.887 99.4297 113.723 99.8984 113.395C100.367 113.066 100.918 112.492 101.551 111.672C102.184 110.828 102.91 109.703 103.73 108.297C104.551 106.867 105.512 105.062 106.613 102.883L107 102.145L108.441 103.234L108.055 103.973C107.164 105.707 106.273 107.418 105.383 109.105C104.516 110.793 103.625 112.293 102.711 113.605C101.82 114.918 100.918 115.984 100.004 116.805C99.0898 117.602 98.1758 118 97.2617 118C96.3008 118 95.4688 117.812 94.7656 117.438C94.0859 117.039 93.5117 116.395 93.043 115.504C92.5977 114.613 92.2578 113.441 92.0234 111.988C91.8125 110.512 91.707 108.695 91.707 106.539C91.707 105.93 91.707 105.297 91.707 104.641C91.707 103.961 91.7305 103.258 91.7773 102.531H91.4258ZM98.6328 82C98.6328 82.8203 98.3516 83.5117 97.7891 84.0742C97.25 84.6133 96.5703 84.8828 95.75 84.8828C94.9531 84.8828 94.2734 84.6133 93.7109 84.0742C93.1484 83.5117 92.8672 82.8203 92.8672 82C92.8672 81.2031 93.1484 80.5234 93.7109 79.9609C94.2734 79.3984 94.9531 79.1172 95.75 79.1172C96.5703 79.1172 97.25 79.3984 97.7891 79.9609C98.3516 80.5234 98.6328 81.2031 98.6328 82ZM106.648 102.883L107 102.145C107.352 101.441 107.668 100.715 107.949 99.9648C108.254 99.2148 108.512 98.5117 108.723 97.8555C108.934 97.1758 109.098 96.5781 109.215 96.0625C109.332 95.5234 109.414 95.1133 109.461 94.832C108.852 94.7617 108.266 94.6094 107.703 94.375C107.141 94.1406 106.648 93.8242 106.227 93.4258C105.805 93.0273 105.477 92.5586 105.242 92.0195C104.984 91.4805 104.855 90.8711 104.855 90.1914C104.855 89.6523 104.949 89.1719 105.137 88.75C105.324 88.3281 105.582 87.9766 105.91 87.6953C106.215 87.4141 106.566 87.2031 106.965 87.0625C107.34 86.8984 107.738 86.8164 108.16 86.8164C108.723 86.8164 109.215 86.9336 109.637 87.168C110.059 87.4023 110.41 87.7188 110.691 88.1172C110.973 88.4922 111.184 88.9375 111.324 89.4531C111.465 89.9453 111.535 90.4609 111.535 91C112.191 91 112.895 90.9062 113.645 90.7188C114.418 90.5312 115.191 90.332 115.965 90.1211C116.738 89.8867 117.5 89.6758 118.25 89.4883C119 89.3008 119.691 89.207 120.324 89.207C120.863 89.207 121.297 89.3242 121.625 89.5586C121.953 89.7695 122.117 90.1328 122.117 90.6484C122.117 91.0234 122 91.6445 121.766 92.5117C121.555 93.3789 121.285 94.3867 120.957 95.5352C120.629 96.6836 120.266 97.9375 119.867 99.2969C119.492 100.633 119.141 101.992 118.812 103.375C118.484 104.734 118.203 106.059 117.969 107.348C117.758 108.637 117.652 109.785 117.652 110.793C117.652 112.059 117.793 112.914 118.074 113.359C118.355 113.805 118.859 114.027 119.586 114.027C119.891 114.027 120.266 113.898 120.711 113.641C121.18 113.359 121.742 112.832 122.398 112.059C123.055 111.262 123.828 110.137 124.719 108.684C125.633 107.207 126.688 105.273 127.883 102.883L128.234 102.145L129.676 103.234L129.324 103.973C127.918 106.785 126.664 109.094 125.562 110.898C124.461 112.703 123.441 114.133 122.504 115.188C121.59 116.242 120.723 116.98 119.902 117.402C119.082 117.801 118.262 118 117.441 118C116.059 118 114.934 117.473 114.066 116.418C113.199 115.363 112.766 113.734 112.766 111.531C112.766 110.336 112.93 109.094 113.258 107.805C113.586 106.516 113.996 105.238 114.488 103.973C114.98 102.684 115.531 101.418 116.141 100.176C116.75 98.9336 117.324 97.7617 117.863 96.6602C118.426 95.5352 118.93 94.4922 119.375 93.5312C119.82 92.5703 120.137 91.7266 120.324 91L120.113 90.7891C119.738 90.7891 119.234 90.9883 118.602 91.3867C117.969 91.7852 117.254 92.2422 116.457 92.7578C115.684 93.25 114.852 93.7188 113.961 94.1641C113.07 94.6094 112.168 94.8789 111.254 94.9727C111.207 95.3008 111.102 95.7812 110.938 96.4141C110.797 97.0469 110.598 97.75 110.34 98.5234C110.082 99.2969 109.789 100.094 109.461 100.914C109.133 101.734 108.793 102.508 108.441 103.234L108.09 103.973L106.648 102.883ZM108.371 88.7852C108.16 88.7852 107.984 88.8555 107.844 88.9961C107.703 89.1367 107.633 89.3008 107.633 89.4883C107.633 89.7695 107.703 90.0156 107.844 90.2266C107.984 90.4141 108.16 90.5781 108.371 90.7188C108.582 90.8359 108.793 90.9297 109.004 91C109.238 91.0469 109.438 91.0703 109.602 91.0703C109.602 90.4141 109.496 89.875 109.285 89.4531C109.074 89.0078 108.77 88.7852 108.371 88.7852ZM128.094 106.469C128.094 103.984 128.188 101.488 128.375 98.9805C128.562 96.4727 128.809 93.9297 129.113 91.3516H125.914L126.301 89.207H129.395C129.723 86.8164 130.051 84.4258 130.379 82.0352C130.73 79.6211 131.047 77.207 131.328 74.793H134.914C134.867 75.3086 134.797 76.0586 134.703 77.043C134.633 78.0039 134.539 79.1289 134.422 80.418C134.328 81.6836 134.234 83.0781 134.141 84.6016C134.047 86.1016 133.953 87.6367 133.859 89.207H140.68L140.328 91.3516H133.719C133.625 92.6875 133.543 94 133.473 95.2891C133.402 96.5781 133.332 97.8086 133.262 98.9805C133.215 100.129 133.18 101.195 133.156 102.18C133.133 103.141 133.121 103.973 133.121 104.676C133.121 106.457 133.168 107.945 133.262 109.141C133.379 110.336 133.543 111.297 133.754 112.023C133.988 112.75 134.27 113.266 134.598 113.57C134.949 113.875 135.348 114.027 135.793 114.027C136.379 114.027 137.023 113.734 137.727 113.148C138.453 112.539 139.203 111.73 139.977 110.723C140.75 109.715 141.535 108.543 142.332 107.207C143.129 105.848 143.902 104.406 144.652 102.883L145.004 102.145L146.445 103.234L146.094 103.973C145.016 106.152 143.938 108.109 142.859 109.844C141.805 111.578 140.762 113.055 139.73 114.273C138.699 115.469 137.691 116.395 136.707 117.051C135.723 117.684 134.773 118 133.859 118C132.945 118 132.125 117.789 131.398 117.367C130.695 116.945 130.098 116.277 129.605 115.363C129.113 114.426 128.738 113.23 128.48 111.777C128.223 110.324 128.094 108.555 128.094 106.469ZM147.254 90.1914C147.348 89.957 147.57 89.7695 147.922 89.6289C148.273 89.4883 148.648 89.3945 149.047 89.3477C149.445 89.2773 149.82 89.2422 150.172 89.2422C150.523 89.2188 150.758 89.207 150.875 89.207C151.227 89.207 151.449 89.3008 151.543 89.4883C151.66 89.6523 151.719 89.9219 151.719 90.2969C151.719 90.4844 151.66 90.9062 151.543 91.5625C151.426 92.1953 151.273 92.9922 151.086 93.9531C150.922 94.9141 150.734 96.0039 150.523 97.2227C150.336 98.4414 150.148 99.6953 149.961 100.984C149.797 102.273 149.656 103.586 149.539 104.922C149.422 106.234 149.363 107.477 149.363 108.648C149.363 110.688 149.703 112.223 150.383 113.254C151.062 114.262 151.848 114.766 152.738 114.766C154.285 114.766 155.656 113.629 156.852 111.355C158.047 109.082 159.289 105.754 160.578 101.371V91.1406C160.578 90.7422 160.754 90.4258 161.105 90.1914C161.48 89.9336 161.902 89.7344 162.371 89.5938C162.84 89.4531 163.297 89.3594 163.742 89.3125C164.188 89.2422 164.504 89.207 164.691 89.207C165.418 89.207 165.781 89.5703 165.781 90.2969C165.781 90.5547 165.758 90.9883 165.711 91.5977C165.688 92.1836 165.652 92.8867 165.605 93.707C165.559 94.5039 165.512 95.3945 165.465 96.3789C165.441 97.3398 165.43 98.3125 165.43 99.2969V113.605C165.852 113.066 166.379 112.352 167.012 111.461C167.668 110.57 168.336 109.621 169.016 108.613C169.719 107.605 170.387 106.598 171.02 105.59C171.676 104.582 172.203 103.68 172.602 102.883L172.988 102.145L174.43 103.234L174.043 103.973C173.551 104.957 172.965 105.977 172.285 107.031C171.605 108.086 170.879 109.152 170.105 110.23C169.355 111.285 168.57 112.34 167.75 113.395C166.953 114.426 166.18 115.41 165.43 116.348V124.117C165.43 126.273 165.23 128.102 164.832 129.602C164.457 131.125 163.93 132.355 163.25 133.293C162.57 134.254 161.773 134.945 160.859 135.367C159.945 135.789 158.949 136 157.871 136C157.191 136 156.559 135.895 155.973 135.684C155.41 135.473 154.918 135.156 154.496 134.734C154.074 134.336 153.746 133.844 153.512 133.258C153.277 132.695 153.16 132.051 153.16 131.324C153.16 130.27 153.348 129.215 153.723 128.16C154.121 127.105 154.66 126.016 155.34 124.891C156.043 123.766 156.852 122.605 157.766 121.41C158.68 120.238 159.664 119.008 160.719 117.719V107.066C160.133 108.66 159.5 110.137 158.82 111.496C158.141 112.832 157.402 113.98 156.605 114.941C155.809 115.902 154.953 116.652 154.039 117.191C153.125 117.73 152.141 118 151.086 118C150.336 118 149.562 117.883 148.766 117.648C147.992 117.391 147.266 116.934 146.586 116.277C145.93 115.621 145.391 114.742 144.969 113.641C144.547 112.516 144.336 111.086 144.336 109.352C144.336 107.383 144.453 105.379 144.688 103.34C144.922 101.301 145.191 99.4023 145.496 97.6445C145.824 95.8867 146.152 94.3516 146.48 93.0391C146.809 91.7031 147.066 90.7539 147.254 90.1914ZM157.484 133.855C157.859 133.855 158.234 133.773 158.609 133.609C159.008 133.469 159.359 133.129 159.664 132.59C159.969 132.051 160.215 131.254 160.402 130.199C160.613 129.145 160.719 127.715 160.719 125.91V120.602C159.922 121.586 159.184 122.535 158.504 123.449C157.848 124.387 157.273 125.289 156.781 126.156C156.289 127.047 155.902 127.902 155.621 128.723C155.34 129.543 155.199 130.34 155.199 131.113C155.199 131.84 155.398 132.473 155.797 133.012C156.195 133.574 156.758 133.855 157.484 133.855Z" fill="white"/>
</g>
</svg>
